<svg width="30" height="30" viewBox="0 0 30 30" fill="none" xmlns="http://www.w3.org/2000/svg">
<path d="M3.48752 22.2985L13.2563 24.9141C13.4438 24.9656 13.636 24.9891 13.8235 24.9891C14.1985 24.9891 14.5735 24.8906 14.9063 24.6984C15.4078 24.4078 15.7688 23.9391 15.9188 23.3766L16.3406 21.8016C16.7625 22.3547 17.325 22.6828 18.0422 22.6828C18.4172 22.6828 18.7922 22.5844 19.1297 22.3875L27.0375 17.8219C28.0735 17.2219 28.4344 15.8906 27.8344 14.85L22.7766 6.09376C22.486 5.58751 22.0172 5.23126 21.4547 5.07658C20.8969 4.92658 20.3063 5.00626 19.8047 5.29689L11.8969 9.86251C11.6485 10.0031 11.4516 10.2047 11.2781 10.425L6.97502 9.27189C5.8172 8.96251 4.62189 9.65158 4.31252 10.8094L1.95002 19.6266C1.80002 20.1891 1.87502 20.775 2.16564 21.2766C2.45627 21.7781 2.92502 22.1391 3.48752 22.2891V22.2985ZM12.3656 10.6781L20.2735 6.11251C20.5594 5.94845 20.8922 5.90158 21.211 5.98595C21.5297 6.07033 21.7969 6.27658 21.961 6.56251L27.0188 15.3188C27.361 15.9094 27.1547 16.6688 26.5641 17.011L18.6563 21.5766C18.0656 21.9188 17.311 21.7219 16.9688 21.1219L16.6641 20.5922L17.2266 18.4875C17.4235 18.7735 17.7047 18.9985 18.061 19.0922C18.1875 19.125 18.3141 19.1438 18.4453 19.1438C19.1156 19.1438 19.7063 18.6938 19.8797 18.0469C19.9125 17.9203 19.9313 17.7938 19.9313 17.6625C19.9313 16.9922 19.4813 16.4016 18.8297 16.2281C18.7031 16.1953 18.5766 16.1766 18.4453 16.1766C18.2156 16.1766 18 16.2469 17.8031 16.3453L18.2813 14.5547C18.5906 13.3969 17.9016 12.2016 16.7438 11.8922L12.3328 10.711C12.3328 10.711 12.3516 10.6875 12.3656 10.6781ZM17.8969 17.6625C17.8969 17.3016 18.2391 17.0438 18.586 17.1375C18.8672 17.2125 19.05 17.5031 18.9703 17.8078C18.8906 18.0891 18.5906 18.2719 18.3 18.1922C18.061 18.1266 17.8969 17.911 17.8969 17.6672V17.6625ZM2.8547 19.8797L5.2172 11.0625C5.3672 10.5094 5.86877 10.1438 6.41252 10.1438C6.52033 10.1438 6.62814 10.1578 6.73127 10.186L16.4953 12.8016C17.1563 12.9797 17.5453 13.6594 17.3719 14.3156L15.0094 23.1375C14.925 23.4563 14.7188 23.7235 14.4328 23.8875C14.1469 24.0516 13.8141 24.0938 13.4953 24.0094L3.72658 21.3938C3.40783 21.3094 3.14064 21.1031 2.97189 20.8172C2.80783 20.5313 2.76564 20.1985 2.85002 19.8797H2.8547Z" fill="white"/>
<path d="M20.1047 11.461C20.2313 11.4938 20.3625 11.5125 20.4891 11.5125C21.1453 11.5125 21.7453 11.0766 21.9234 10.4157C22.0266 10.036 21.9703 9.63285 21.7734 9.29066C21.5766 8.94847 21.2531 8.70004 20.8734 8.59691C20.7469 8.5641 20.6203 8.54535 20.4891 8.54535C19.6781 8.54535 19.0078 9.20629 19.0078 10.0313C19.0078 10.7016 19.4578 11.2922 20.1094 11.4657L20.1047 11.461ZM20.4891 9.48285C20.5359 9.48285 20.5828 9.48754 20.6297 9.5016C20.7703 9.5391 20.8875 9.62816 20.9578 9.75472C21.0328 9.88129 21.0516 10.0266 21.0141 10.1672C20.9391 10.4532 20.6297 10.6313 20.3438 10.5516C20.1047 10.486 19.9406 10.2703 19.9406 10.0266C19.9406 9.72191 20.1891 9.47816 20.4844 9.47816L20.4891 9.48285Z" fill="white"/>
<path d="M8.83127 17.8406C9.23909 18.5484 10.1485 18.7922 10.8563 18.3844C11.5641 17.9766 11.8078 17.0625 11.4 16.3594C10.9922 15.6562 10.0828 15.4078 9.37502 15.8156C8.67659 16.2187 8.41877 17.1234 8.83127 17.8406ZM9.84377 16.6266C10.1016 16.4766 10.4391 16.5656 10.5891 16.8281C10.7391 17.0859 10.65 17.4234 10.3875 17.5734C10.1344 17.7234 9.78752 17.6297 9.64221 17.3766C9.49221 17.1141 9.58127 16.7812 9.84377 16.6312V16.6266Z" fill="white"/>
<path d="M14.2781 16.4062C14.9813 15.9984 15.2344 15.0891 14.8219 14.3813C14.5594 13.9219 14.0672 13.6406 13.5375 13.6406C13.2797 13.6406 13.0219 13.7109 12.7969 13.8375C12.0985 14.2406 11.8406 15.1406 12.2531 15.8625C12.661 16.5703 13.5703 16.8141 14.2781 16.4062ZM13.261 14.6484C13.3453 14.6016 13.4391 14.5734 13.5328 14.5734C13.725 14.5734 13.9078 14.6766 14.0063 14.8453C14.1563 15.1031 14.0672 15.4406 13.8047 15.5906C13.5469 15.7406 13.2094 15.6516 13.0594 15.3938C12.9094 15.1312 13.0031 14.7984 13.2563 14.6484H13.261Z" fill="white"/>
<path d="M7.4344 20.3578C8.14222 19.95 8.38597 19.0407 7.97815 18.3328C7.57503 17.6344 6.67034 17.3766 5.95315 17.7891C5.24534 18.1969 5.00159 19.1063 5.4094 19.8141C5.81722 20.5219 6.72659 20.7657 7.4344 20.3578ZM6.4219 18.6C6.6844 18.45 7.01722 18.5438 7.16722 18.8016C7.31722 19.0594 7.22815 19.3969 6.96565 19.5469C6.71253 19.6922 6.37034 19.6125 6.22034 19.3453C6.07034 19.0875 6.1594 18.75 6.4219 18.6Z" fill="white"/>
<path d="M11.3484 19.2328C10.6406 19.6406 10.3969 20.55 10.8047 21.2578C11.2125 21.9656 12.1219 22.2094 12.8297 21.8016C13.5328 21.3938 13.7859 20.4844 13.3734 19.7766C12.9703 19.0781 12.0656 18.8203 11.3484 19.2328ZM12.3609 20.9906C12.1078 21.1359 11.7609 21.0422 11.6156 20.7891C11.4656 20.5313 11.5594 20.1891 11.8172 20.0438C12.0844 19.8891 12.4125 19.9875 12.5625 20.2453C12.7125 20.5031 12.6234 20.8406 12.3609 20.9906Z" fill="white"/>
<path d="M8.88283 14.9578C9.58127 14.5547 9.83908 13.65 9.42658 12.9328C9.02345 12.2297 8.11408 11.9765 7.40158 12.389C6.69377 12.7969 6.45002 13.7109 6.85783 14.414C7.26564 15.1219 8.1797 15.3656 8.88283 14.9578ZM7.87033 13.2C8.13283 13.0453 8.46564 13.1437 8.61564 13.3969C8.76564 13.6594 8.67658 13.9922 8.41408 14.1422C8.15627 14.2875 7.81877 14.2031 7.66877 13.9406C7.51877 13.6828 7.60783 13.3453 7.87033 13.1953V13.2Z" fill="white"/>
</svg>
