<svg width="256" height="256" viewBox="0 0 256 256" fill="none" xmlns="http://www.w3.org/2000/svg">
<g clip-path="url(#clip0_268_24)">
<path d="M224.6 51.9C219.178 45.8147 212.563 40.9083 205.166 37.4851C197.769 34.062 189.748 32.195 181.6 32C173.459 31.8216 165.366 33.2884 157.805 36.3126C150.244 39.3369 143.372 43.8563 137.6 49.6L128 59.1L120.5 51.7C97.2 28.3 59.2 26.3 35.9 47.4C29.8362 52.8397 24.9457 59.4591 21.5276 66.8534C18.1094 74.2477 16.2354 82.2615 16.0201 90.4048C15.8048 98.5481 17.2528 106.65 20.2755 114.214C23.2982 121.779 27.8321 128.647 33.6 134.4L116.7 217.5C118.178 218.994 119.938 220.179 121.878 220.988C123.818 221.798 125.898 222.214 128 222.214C130.102 222.214 132.182 221.798 134.122 220.988C136.062 220.179 137.821 218.994 139.3 217.5L220.3 136.5C243.7 113.2 245.6 75.2 224.6 51.9Z" stroke="white" stroke-width="20"/>
</g>
<defs>
<clipPath id="clip0_268_24">
<rect width="256" height="256" fill="white"/>
</clipPath>
</defs>
</svg>
