<svg width="32" height="32" viewBox="0 0 32 32" fill="none" xmlns="http://www.w3.org/2000/svg">
<path fill-rule="evenodd" clip-rule="evenodd" d="M18 21.999V24C18 24.796 17.684 25.559 17.121 26.121C16.559 26.684 15.796 27 15 27C12.834 27 10.166 27 8 27C7.204 27 6.441 26.684 5.879 26.121C5.316 25.559 5 24.796 5 24V8C5 7.204 5.316 6.441 5.879 5.879C6.441 5.316 7.204 5 8 5C10.166 5 12.834 5 15 5C16.657 5 18 6.343 18 8V9.941C18 10.493 18.448 10.941 19 10.941C19.552 10.941 20 10.493 20 9.941V8C20 5.239 17.761 3 15 3C12.834 3 10.166 3 8 3C6.674 3 5.402 3.527 4.464 4.464C3.527 5.402 3 6.674 3 8C3 12.439 3 19.561 3 24C3 25.326 3.527 26.598 4.464 27.536C5.402 28.473 6.674 29 8 29C10.166 29 12.834 29 15 29C16.326 29 17.598 28.473 18.536 27.536C19.473 26.598 20 25.326 20 24C20 22.898 20 21.999 20 21.999C20 21.447 19.552 20.999 19 20.999C18.448 20.999 18 21.447 18 21.999Z" fill="white"/>
<path fill-rule="evenodd" clip-rule="evenodd" d="M26.436 15H9.22601C8.67401 15 8.22601 15.448 8.22601 16C8.22601 16.552 8.67401 17 9.22601 17H26.471L22.504 20.967C22.113 21.358 22.113 21.991 22.504 22.382C22.894 22.772 23.528 22.772 23.918 22.382C23.918 22.382 26.485 19.815 28.161 18.139C29.332 16.967 29.332 15.068 28.161 13.896L23.918 9.65403C23.528 9.26303 22.894 9.26303 22.504 9.65403C22.113 10.044 22.113 10.678 22.504 11.068L26.436 15Z" fill="white"/>
</svg>
