<svg width="17" height="17" viewBox="0 0 17 17" fill="none" xmlns="http://www.w3.org/2000/svg">
<path d="M11.6581 2.70168C11.6581 2.26623 11.5018 1.84056 11.2089 1.47849C10.916 1.11643 10.4997 0.834234 10.0126 0.667594C9.52555 0.500954 8.9896 0.457353 8.47253 0.542306C7.95546 0.627258 7.4805 0.836948 7.10771 1.14486C6.73493 1.45277 6.48106 1.84507 6.37821 2.27216C6.27536 2.69924 6.32814 3.14193 6.52989 3.54423C6.73164 3.94654 7.0733 4.29039 7.51165 4.53231C7.95 4.77424 8.46535 4.90337 8.99255 4.90337C9.69951 4.90337 10.3775 4.6714 10.8774 4.25851C11.3773 3.84561 11.6581 3.28561 11.6581 2.70168ZM8.99255 3.80252C8.72895 3.80252 8.47127 3.73796 8.2521 3.617C8.03293 3.49604 7.8621 3.32411 7.76122 3.12296C7.66035 2.9218 7.63395 2.70046 7.68538 2.48692C7.73681 2.27338 7.86374 2.07723 8.05013 1.92327C8.23653 1.76932 8.47401 1.66447 8.73254 1.62199C8.99107 1.57952 9.25905 1.60132 9.50259 1.68464C9.74612 1.76796 9.95427 1.90906 10.1007 2.09009C10.2472 2.27112 10.3253 2.48396 10.3253 2.70168C10.3253 2.99364 10.1849 3.27365 9.93497 3.4801C9.68503 3.68654 9.34603 3.80252 8.99255 3.80252ZM16.5178 9.17256L12.7552 5.6485C12.505 5.41427 12.1973 5.2267 11.8527 5.09823C11.508 4.96976 11.1341 4.90333 10.756 4.90337H7.22912C6.85096 4.90333 6.47713 4.96976 6.13245 5.09823C5.78776 5.2267 5.48012 5.41427 5.22994 5.6485L1.46733 9.17256C1.16177 9.43069 0.991263 9.77766 0.992561 10.1387C0.99386 10.4997 1.16686 10.8458 1.47428 11.1024C1.78169 11.359 2.19888 11.5056 2.63591 11.5105C3.07294 11.5154 3.4948 11.3783 3.81053 11.1286L5.1683 10.2287L3.79054 14.555C3.60806 14.8876 3.59299 15.2664 3.74866 15.6081C3.90433 15.9498 4.21798 16.2265 4.62061 16.3772C5.02324 16.528 5.48187 16.5404 5.89561 16.4118C6.30935 16.2832 6.6443 16.0242 6.82678 15.6916L8.99255 12.6044L11.1583 15.6916C11.349 16.013 11.6837 16.2604 12.0915 16.3813C12.4993 16.5023 12.9482 16.4872 13.3428 16.3393C13.7373 16.1914 14.0467 15.9224 14.2051 15.5893C14.3635 15.2561 14.3585 14.8851 14.1912 14.555L12.8168 10.2287L14.1746 11.1286C14.4903 11.3783 14.9122 11.5154 15.3492 11.5105C15.7862 11.5056 16.2034 11.359 16.5108 11.1024C16.8182 10.8458 16.9912 10.4997 16.9925 10.1387C16.9938 9.77766 16.8233 9.43069 16.5178 9.17256ZM15.559 10.3264C15.5281 10.352 15.4913 10.3723 15.4509 10.3861C15.4104 10.4 15.3671 10.4071 15.3233 10.4071C15.2795 10.4071 15.2361 10.4 15.1957 10.3861C15.1552 10.3723 15.1185 10.352 15.0875 10.3264C15.07 10.3126 15.0525 10.2989 15.0334 10.2865L12.0746 8.32698C11.9654 8.25499 11.8316 8.21316 11.692 8.20742C11.5525 8.20167 11.4143 8.23231 11.297 8.29498C11.1797 8.35765 11.0891 8.4492 11.0383 8.55668C10.9874 8.66416 10.9787 8.78213 11.0134 8.89391L12.9193 14.8797C12.9291 14.9117 12.9425 14.9428 12.9592 14.9726C12.9785 15.0055 12.9896 15.0411 12.992 15.0775C12.9944 15.114 12.988 15.1504 12.9732 15.1848C12.9584 15.2191 12.9355 15.2507 12.9057 15.2777C12.876 15.3047 12.8401 15.3265 12.8001 15.3419C12.7601 15.3573 12.7167 15.366 12.6726 15.3675C12.6285 15.3689 12.5845 15.3631 12.5431 15.3504C12.5017 15.3377 12.4638 15.3183 12.4316 15.2934C12.3993 15.2684 12.3734 15.2384 12.3553 15.2052C12.3472 15.1903 12.338 15.1758 12.3278 15.1618L9.56898 11.2332C9.5104 11.1498 9.42632 11.0806 9.32516 11.0324C9.22399 10.9843 9.1093 10.959 8.99255 10.959C8.87581 10.959 8.76111 10.9843 8.65995 11.0324C8.55879 11.0806 8.4747 11.1498 8.41613 11.2332L5.6606 15.1584C5.65045 15.1724 5.64127 15.1869 5.63311 15.2017C5.61461 15.2345 5.58845 15.264 5.55615 15.2884C5.52385 15.3129 5.48603 15.3318 5.44486 15.3442C5.38289 15.3629 5.31558 15.3661 5.25146 15.3532C5.18733 15.3403 5.12928 15.312 5.08467 15.2718C5.04005 15.2316 5.01088 15.1814 5.00086 15.1276C4.99083 15.0737 5.00041 15.0186 5.02836 14.9692C5.04515 14.9393 5.05853 14.9082 5.06834 14.8763L6.97172 8.89391C7.00644 8.78213 6.99774 8.66416 6.94685 8.55668C6.89596 8.4492 6.80546 8.35765 6.68814 8.29498C6.57082 8.23231 6.43262 8.20167 6.29307 8.20742C6.15352 8.21316 6.01969 8.25499 5.9105 8.32698L2.95172 10.2865C2.93256 10.2989 2.91507 10.3126 2.89758 10.3264C2.86697 10.353 2.83022 10.3744 2.78948 10.3891C2.74874 10.4038 2.70484 10.4117 2.66037 10.4122C2.6159 10.4127 2.57176 10.4058 2.53055 10.392C2.48934 10.3782 2.4519 10.3577 2.42042 10.3318C2.38895 10.3058 2.36408 10.2749 2.34729 10.2409C2.33049 10.2069 2.32212 10.1705 2.32264 10.1337C2.32317 10.097 2.3326 10.0607 2.35037 10.027C2.36814 9.99337 2.39389 9.96297 2.4261 9.93765C2.4361 9.92939 2.44526 9.92114 2.45443 9.91219L6.22953 6.37643C6.35465 6.25938 6.50849 6.16566 6.68083 6.10148C6.85317 6.0373 7.04007 6.00415 7.22912 6.00421H10.756C10.945 6.00415 11.1319 6.0373 11.3043 6.10148C11.4766 6.16566 11.6305 6.25938 11.7556 6.37643L15.5307 9.91219C15.5398 9.92114 15.549 9.92939 15.559 9.93765C15.6213 9.98924 15.6563 10.0591 15.6563 10.132C15.6563 10.2049 15.6213 10.2748 15.559 10.3264Z" fill="#616161"/>
</svg>
