<svg width="31" height="26" viewBox="0 0 31 26" fill="none" xmlns="http://www.w3.org/2000/svg">
<path d="M15 25.72C14.6045 25.721 14.2127 25.6437 13.8471 25.4927C13.4816 25.3417 13.1495 25.1199 12.87 24.84L2.56999 14.54C1.75632 13.7175 1.11448 12.7413 0.681832 11.6683C0.249189 10.5953 0.0344026 9.44688 0.0499854 8.29002C0.0578251 7.22986 0.274744 6.18166 0.688317 5.20547C1.10189 4.22927 1.70399 3.34426 2.46013 2.60112C3.21627 1.85798 4.1116 1.27133 5.09482 0.874749C6.07804 0.478172 7.12985 0.279469 8.18999 0.290021C9.2691 0.279151 10.3394 0.485097 11.3374 0.895644C12.3355 1.30619 13.2409 1.91298 14 2.68002L15 3.68002L15.82 2.86002C17.2359 1.40659 19.1306 0.515533 21.1531 0.351895C23.1756 0.188257 25.1888 0.763124 26.82 1.97002C27.7485 2.68507 28.514 3.58974 29.0656 4.62378C29.6171 5.65782 29.942 6.79751 30.0187 7.96694C30.0953 9.13637 29.9219 10.3087 29.51 11.4059C29.0982 12.5031 28.4572 13.4999 27.63 14.33L17.13 24.84C16.8505 25.1199 16.5184 25.3417 16.1529 25.4927C15.7873 25.6437 15.3955 25.721 15 25.72ZM8.14999 2.28002C6.56051 2.2784 5.03275 2.89524 3.88999 4.00002C3.30738 4.56056 2.84407 5.23307 2.52788 5.97715C2.21169 6.72123 2.04914 7.52154 2.04999 8.33002C2.04122 9.21933 2.20907 10.1015 2.5438 10.9255C2.87854 11.7495 3.3735 12.4988 3.99999 13.13L14.3 23.43C14.3929 23.5237 14.5035 23.5981 14.6254 23.6489C14.7473 23.6997 14.878 23.7258 15.01 23.7258C15.142 23.7258 15.2727 23.6997 15.3946 23.6489C15.5164 23.5981 15.627 23.5237 15.72 23.43L26.23 12.91C26.8469 12.2801 27.3236 11.5267 27.6286 10.6994C27.9337 9.87215 28.0602 8.98969 28 8.11002C27.9466 7.22134 27.7018 6.35468 27.2824 5.56937C26.863 4.78406 26.2789 4.09864 25.57 3.56002C24.3261 2.64291 22.7913 2.20928 21.2514 2.3399C19.7115 2.47052 18.2716 3.1565 17.2 4.27002L15.71 5.80002C15.617 5.89375 15.5064 5.96814 15.3846 6.01891C15.2627 6.06968 15.132 6.09582 15 6.09582C14.868 6.09582 14.7373 6.06968 14.6154 6.01891C14.4935 5.96814 14.3829 5.89375 14.29 5.80002L12.59 4.10002C11.4191 2.9393 9.8387 2.28559 8.18999 2.28002H8.14999Z" fill="white"/>
</svg>
